<?xml version="1.0" standalone="no"?>
<!DOCTYPE svg PUBLIC "-//W3C//DTD SVG 20010904//EN"
 "http://www.w3.org/TR/2001/REC-SVG-20010904/DTD/svg10.dtd">
<svg version="1.0" xmlns="http://www.w3.org/2000/svg"
 width="700.000000pt" height="700.000000pt" viewBox="0 0 700.000000 700.000000"
 preserveAspectRatio="xMidYMid meet">
<metadata>
Created by potrace 1.11, written by Peter Selinger 2001-2013
</metadata>
<g transform="translate(0.000000,700.000000) scale(0.100000,-0.100000)"
fill="#000000" stroke="none">
<path d="M1568 5255 c-2 -2 -32 -6 -68 -9 -61 -6 -79 -8 -155 -21 -199 -34
-413 -110 -570 -203 -289 -172 -508 -437 -619 -749 -24 -69 -54 -173 -62 -220
-2 -13 -6 -35 -9 -50 -27 -154 -40 -458 -24 -568 4 -27 10 -72 13 -100 23
-208 94 -419 201 -600 212 -359 563 -597 1020 -691 257 -53 620 -52 910 1 197
37 511 158 635 246 l25 17 1 216 c1 119 0 216 -1 216 -2 0 -53 -35 -113 -79
-222 -158 -507 -271 -756 -298 -89 -10 -352 -10 -431 0 -407 50 -700 237 -863
552 -49 94 -97 233 -115 335 -3 14 -8 41 -11 60 -15 77 -18 122 -20 296 -3
190 1 242 36 414 81 412 325 695 705 819 48 16 122 34 163 41 41 7 84 15 95
17 48 12 375 10 450 -2 44 -7 100 -16 125 -20 74 -11 258 -74 365 -124 108
-51 217 -118 306 -187 30 -24 57 -44 60 -44 3 0 5 100 5 222 l-1 222 -116 60
c-226 118 -465 190 -744 223 -45 5 -433 12 -437 8z"/>
<path d="M4000 5242 c0 -5 44 -119 99 -253 54 -134 187 -464 295 -734 108
-269 201 -499 206 -510 5 -11 23 -56 41 -100 17 -44 46 -116 64 -160 18 -44
108 -267 200 -495 91 -228 170 -424 175 -435 5 -11 48 -117 95 -235 47 -118
89 -222 94 -230 7 -13 47 -15 260 -15 158 0 256 4 260 10 5 5 39 87 76 180 37
94 73 184 80 200 8 17 86 212 175 435 89 223 168 419 175 435 7 17 68 167 135
335 67 168 142 352 165 410 48 118 129 319 235 585 40 99 78 194 85 210 76
177 85 206 85 291 l0 84 -203 0 -203 0 -78 -197 c-43 -109 -82 -207 -87 -218
-5 -11 -99 -247 -209 -525 -110 -278 -205 -514 -210 -525 -5 -11 -30 -74 -56
-140 -25 -66 -52 -133 -59 -150 -24 -55 -342 -860 -349 -882 -4 -13 -11 -23
-15 -23 -4 0 -32 62 -61 138 -29 75 -59 151 -66 167 -7 17 -27 66 -44 110 -17
44 -35 89 -40 100 -5 11 -53 130 -106 265 -52 135 -102 259 -109 275 -23 53
-375 944 -375 950 0 3 -9 24 -19 48 -11 23 -70 169 -131 325 l-112 282 -234 0
c-129 0 -234 -4 -234 -8z"/>
<path d="M3277 3713 c-2 -5 -4 -86 -3 -180 1 -95 -1 -173 -4 -174 -3 0 -88 -2
-190 -3 -102 -2 -187 -4 -190 -4 -3 -1 -5 -54 -5 -117 l0 -115 25 -1 c14 0
100 0 193 0 92 1 167 -2 168 -6 1 -5 2 -84 4 -178 1 -93 3 -172 4 -176 1 -4
216 -5 244 0 4 0 7 82 7 180 l0 179 163 1 c89 0 177 0 195 0 l32 1 0 115 c0
85 -3 115 -12 117 -7 0 -94 2 -193 2 l-180 2 -3 182 -2 182 -125 0 c-68 0
-126 -3 -128 -7z"/>
<path d="M4009 3670 c-7 -32 -2 -343 6 -348 17 -11 546 -8 553 3 11 17 8 345
-3 346 -34 4 -555 3 -556 -1z"/>
<path d="M4009 3138 c-1 -2 -2 -325 -3 -718 -1 -393 -6 -731 -10 -750 -27
-115 -92 -155 -261 -159 -55 -2 -102 -4 -105 -6 -3 -2 -6 -66 -5 -142 l0 -138
205 0 c217 0 272 5 360 31 157 47 262 130 324 259 58 118 59 132 60 913 l1
712 -282 0 c-156 0 -284 -1 -284 -2z"/>
</g>
</svg>
